<?xml version="1.0" standalone="no"?>
<!DOCTYPE svg PUBLIC "-//W3C//DTD SVG 20010904//EN"
 "http://www.w3.org/TR/2001/REC-SVG-20010904/DTD/svg10.dtd">
<svg version="1.0" xmlns="http://www.w3.org/2000/svg"
 width="700.000000pt" height="700.000000pt" viewBox="0 0 700.000000 700.000000"
 preserveAspectRatio="xMidYMid meet">
<metadata>
Created by potrace 1.14, written by Peter Selinger 2001-2017
</metadata>
<g transform="translate(0.000000,700.000000) scale(0.100000,-0.100000)"
fill="#000000" stroke="none">
<path d="M3280 6994 c-19 -2 -84 -9 -145 -14 -578 -56 -1180 -283 -1660 -625
-237 -169 -531 -446 -709 -670 -416 -521 -673 -1147 -748 -1820 -17 -154 -17
-585 0 -730 69 -588 254 -1099 567 -1570 126 -189 242 -332 410 -504 580 -595
1295 -943 2140 -1043 145 -17 576 -17 730 0 822 91 1556 447 2131 1034 203
206 348 390 487 618 274 449 432 915 499 1465 16 135 16 591 0 730 -100 846
-447 1557 -1043 2141 -555 542 -1249 874 -2029 970 -117 15 -553 27 -630 18z
m83 -1585 c193 -64 347 -195 347 -294 0 -35 -24 -127 -125 -485 -94 -329 -179
-663 -225 -878 -16 -78 -30 -145 -30 -148 0 -26 316 242 516 438 145 142 210
199 235 206 19 5 70 7 114 4 60 -3 100 1 162 17 96 25 208 27 280 6 97 -29
203 -154 203 -241 0 -54 -29 -77 -180 -139 -77 -31 -178 -81 -224 -110 -96
-60 -296 -210 -438 -329 l-97 -81 22 -18 c61 -50 142 -138 172 -187 18 -30 57
-127 86 -215 117 -360 211 -529 385 -695 154 -148 164 -159 164 -190 0 -92
-358 -207 -535 -170 -80 16 -128 42 -193 104 -115 108 -206 276 -313 580 -73
204 -171 411 -210 439 -25 18 -27 18 -83 -4 -34 -12 -75 -38 -101 -63 -38 -36
-44 -49 -55 -111 -19 -113 -38 -289 -50 -460 -7 -87 -16 -167 -21 -176 -26
-50 -225 -110 -369 -112 -157 -2 -265 45 -311 135 -36 69 -30 134 28 363 71
276 112 460 198 890 172 858 231 1295 223 1642 -5 212 -4 219 55 250 103 54
263 68 370 32z"/>
</g>
</svg>
