<svg width="20" height="20" viewBox="0 0 20 20" fill="none" xmlns="http://www.w3.org/2000/svg">
<path fill-rule="evenodd" clip-rule="evenodd" d="M1.37441 6.68261C-0.457812 8.5149 -0.457812 11.4856 1.37441 13.3179L6.6826 18.6261C8.51489 20.4583 11.4856 20.4583 13.3179 18.6261L18.626 13.3179C20.4583 11.4856 20.4583 8.5149 18.626 6.68261L13.3179 1.37442C11.4856 -0.457805 8.51489 -0.457805 6.6826 1.37442L1.37441 6.68261ZM12.3225 12.3226C13.6052 11.04 13.6052 8.96047 12.3225 7.67792C11.04 6.39531 8.96047 6.39531 7.67792 7.67792C6.3953 8.96047 6.3953 11.04 7.67792 12.3226C8.96047 13.6052 11.04 13.6052 12.3225 12.3226Z" fill="#2962FF"/>
</svg>
