<?xml version="1.0" encoding="UTF-8"?><svg id="Layer_2" xmlns="http://www.w3.org/2000/svg" viewBox="0 0 2829.02 995.22"><defs><style>.cls-1{stroke-miterlimit:10;}.cls-1,.cls-2{fill:#fff;}.cls-1,.cls-2,.cls-3,.cls-4,.cls-5,.cls-6,.cls-7,.cls-8{stroke-width:10px;}.cls-1,.cls-5{stroke:#403527;}.cls-2,.cls-3,.cls-4,.cls-5,.cls-6{stroke-linecap:round;}.cls-2,.cls-3,.cls-4,.cls-5,.cls-6,.cls-7,.cls-8{stroke-linejoin:round;}.cls-2,.cls-6{stroke:#bfb38e;}.cls-3{fill:#ededf4;}.cls-3,.cls-4,.cls-7,.cls-8{stroke:#fff;}.cls-4,.cls-5,.cls-6{fill:none;}.cls-7{fill:#8c5230;}.cls-8{fill:#0d0d0d;}</style></defs><g id="Layer_3"><path id="left" class="cls-8" d="m1188.35,431.61s17.88-3.87,11.11,16.91c0,0,22.23,1.93,7.73,53.64l8.21,4.35s23.19-66.68,43.49-68.62,34.31,14.5,0,109.21-42.04,132.4-84.56,150.28c0,0-46.39,10.63-9.18-70.55,0,0,26.09-43.97,11.11-47.36s-57.02,2.42-37.69-48.32l25.61-43.49,4.83-27.06s-40.54,8.25-32.81-16.88c0,0-2.62-12.4,52.14-12.11Z"/><path id="left-2" class="cls-4" d="m1251.82,525.48s-66.92,148.35-92.14,152.45"/><path id="right" class="cls-7" d="m1646.93,501.68s38.66-5.8,40.59,30.44c0,0,7.73,27.72-9.66,32.46,0,0,40.11,63.22,27.54,93.17s-63.79,54.6-115.01-32.86-84.08-162.36-55.09-190.39,73.45,29.48,88.91,56.54c0,0-6.28-38.17-11.6-45.91s-19.33-26.09,35.76-28.03c55.09-1.93,20.3,21.74-8.21,27.06l6.77,57.5Z"/><path id="right-2" class="cls-4" d="m1545.94,474.62s57.02,170.58,112.11,187.49"/><path class="cls-3" d="m1630.98,528.26s-71.29-69.88-21.26,40.11c0,0,34.8,64.27,34.79,14.98l-13.53-55.09Z"/><path class="cls-4" d="m1222.18,516.66s.03,46.87-32.55,93.74"/><path id="left-3" class="cls-1" d="m337.89,74.03S-3.04,178.41,153.65,629.25c0,0,90.65,360.96,514.76,360.97,47.98,0,158.24-8.59,259.25-66.34,172.68-98.72,269.5-315.4,262.63-554.12,0,0-13.05-304.43-439.25-342.12,0,0-223.25-34.79-413.15,46.39Z"/><path id="left-4" class="cls-5" d="m430.66,76.93S90.95,142.52,163.93,490.08c85.53,407.35,394.31,476.94,507.38,468.24,0,0,345.02,8.7,458.09-336.32,113.07-345.02-64.75-665.88-698.74-545.07Z"/><path id="right-3" class="cls-2" d="m2019.49,20.23s-590.01,65.4-340.67,652.51c0,0,39.07,131.25,182.66,221.8,160.91,101.48,433.45,146.42,682.79-73.93,0,0,255.14-271.09,134.89-608.86,0,0-69.65-155.11-274.7-190.34-103.9-17.85-248.91-25.1-384.97-1.18Z"/><path id="right-4" class="cls-6" d="m2103.57,37.79s-574.07,18.85-430.55,530.58,655.25,346.47,655.25,346.47c0,0,356.62-117.42,350.82-590.01,0,0-1.45-333.42-575.52-287.03Z"/><path class="cls-3" d="m1190.63,352.36c9.8-18.85,243.2-79.73,412.81,0,0,0,13.56,3.94,13.93,22.23s40.67-19.33,23.28-74.42c0,0-1.13-2.9-23.28,4.83s-170.98-108.24-421.29-.97c0,0-10.78,5.57-22.3-7.36,0,0-37.62,37.32,7.81,68.25l9.04-12.56Z"/><path class="cls-3" d="m2686.34,263.45s-4.83,67.27,8.7,72.48c13.53,5.21,120.81,0,120.81,0,0,0,15.46-26.09,3.87-65.72l-133.37-6.77Z"/><path class="cls-3" d="m137.83,317.57s9.66,43.49,0,61.85l-128.54,10.63s-9.66-29.96,0-68.62l128.54-3.87Z"/></g></svg>