<svg xmlns="http://www.w3.org/2000/svg" xmlns:xlink="http://www.w3.org/1999/xlink" width="1400" height="1000" viewBox="0 0 1400 1000"><rect width="100%" height="100%" fill="#DDDDDD"/><path d="M324.65 540.62L344.28 540.62L344.28 554.59L283.88 554.59L283.88 540.62L306.00 540.62L306.00 476.97Q306.00 473.20 306.23 469.20L306.23 469.20L290.53 482.33Q289.17 483.39 287.85 483.65Q286.52 483.92 285.35 483.69Q284.18 483.47 283.28 482.90Q282.37 482.33 281.92 481.65L281.92 481.65L276.03 473.57L309.33 445.26L324.65 445.26L324.65 540.62ZM374.26 513.44L407.48 513.44L407.48 477.73Q407.48 472.67 408.15 466.55L408.15 466.55L374.26 513.44ZM423.71 513.44L437.45 513.44L437.45 524.24Q437.45 525.75 436.47 526.84Q435.49 527.93 433.67 527.93L433.67 527.93L423.71 527.93L423.71 554.59L407.48 554.59L407.48 527.93L361.42 527.93Q359.53 527.93 358.10 526.76Q356.66 525.59 356.29 523.86L356.29 523.86L354.32 514.42L406.04 445.34L423.71 445.34L423.71 513.44ZM525.10 500L525.10 500Q525.10 514.27 522.05 524.80Q518.99 535.33 513.59 542.20Q508.19 549.08 500.83 552.43Q493.47 555.79 484.94 555.79L484.94 555.79Q476.41 555.79 469.12 552.43Q461.84 549.08 456.47 542.20Q451.11 535.33 448.09 524.80Q445.07 514.27 445.07 500L445.07 500Q445.07 485.65 448.09 475.16Q451.11 464.67 456.47 457.80Q461.84 450.93 469.12 447.57Q476.41 444.21 484.94 444.21L484.94 444.21Q493.47 444.21 500.83 447.57Q508.19 450.93 513.59 457.80Q518.99 464.67 522.05 475.16Q525.10 485.65 525.10 500ZM505.85 500L505.85 500Q505.85 488.15 504.12 480.37Q502.38 472.59 499.47 467.99Q496.57 463.38 492.79 461.53Q489.02 459.68 484.94 459.68L484.94 459.68Q480.94 459.68 477.20 461.53Q473.46 463.38 470.59 467.99Q467.72 472.59 466.03 480.37Q464.33 488.15 464.33 500L464.33 500Q464.33 511.85 466.03 519.63Q467.72 527.41 470.59 532.01Q473.46 536.62 477.20 538.47Q480.94 540.32 484.94 540.32L484.94 540.32Q489.02 540.32 492.79 538.47Q496.57 536.62 499.47 532.01Q502.38 527.41 504.12 519.63Q505.85 511.85 505.85 500ZM612.68 500L612.68 500Q612.68 514.27 609.63 524.80Q606.57 535.33 601.17 542.20Q595.77 549.08 588.41 552.43Q581.05 555.79 572.52 555.79L572.52 555.79Q563.99 555.79 556.70 552.43Q549.42 549.08 544.05 542.20Q538.69 535.33 535.67 524.80Q532.65 514.27 532.65 500L532.65 500Q532.65 485.65 535.67 475.16Q538.69 464.67 544.05 457.80Q549.42 450.93 556.70 447.57Q563.99 444.21 572.52 444.21L572.52 444.21Q581.05 444.21 588.41 447.57Q595.77 450.93 601.17 457.80Q606.57 464.67 609.63 475.16Q612.68 485.65 612.68 500ZM593.43 500L593.43 500Q593.43 488.15 591.70 480.37Q589.96 472.59 587.05 467.99Q584.15 463.38 580.37 461.53Q576.60 459.68 572.52 459.68L572.52 459.68Q568.52 459.68 564.78 461.53Q561.04 463.38 558.17 467.99Q555.30 472.59 553.61 480.37Q551.91 488.15 551.91 500L551.91 500Q551.91 511.85 553.61 519.63Q555.30 527.41 558.17 532.01Q561.04 536.62 564.78 538.47Q568.52 540.32 572.52 540.32L572.52 540.32Q576.60 540.32 580.37 538.47Q584.15 536.62 587.05 532.01Q589.96 527.41 591.70 519.63Q593.43 511.85 593.43 500ZM732.58 529.60L722.69 539.34L697.09 513.74L671.27 539.49L661.38 529.75L687.20 503.85L662.59 479.24L672.40 469.42L697.02 494.04L721.48 469.57L731.45 479.39L706.91 503.93L732.58 529.60ZM835.94 540.62L855.57 540.62L855.57 554.59L795.17 554.59L795.17 540.62L817.29 540.62L817.29 476.97Q817.29 473.20 817.52 469.20L817.52 469.20L801.81 482.33Q800.45 483.39 799.13 483.65Q797.81 483.92 796.64 483.69Q795.47 483.47 794.56 482.90Q793.66 482.33 793.20 481.65L793.20 481.65L787.32 473.57L820.61 445.26L835.94 445.26L835.94 540.62ZM948.81 500L948.81 500Q948.81 514.27 945.75 524.80Q942.69 535.33 937.30 542.20Q931.90 549.08 924.54 552.43Q917.18 555.79 908.64 555.79L908.64 555.79Q900.11 555.79 892.83 552.43Q885.54 549.08 880.18 542.20Q874.82 535.33 871.80 524.80Q868.78 514.27 868.78 500L868.78 500Q868.78 485.65 871.80 475.16Q874.82 464.67 880.18 457.80Q885.54 450.93 892.83 447.57Q900.11 444.21 908.64 444.21L908.64 444.21Q917.18 444.21 924.54 447.57Q931.90 450.93 937.30 457.80Q942.69 464.67 945.75 475.16Q948.81 485.65 948.81 500ZM929.56 500L929.56 500Q929.56 488.15 927.82 480.37Q926.08 472.59 923.18 467.99Q920.27 463.38 916.50 461.53Q912.72 459.68 908.64 459.68L908.64 459.68Q904.64 459.68 900.91 461.53Q897.17 463.38 894.30 467.99Q891.43 472.59 889.73 480.37Q888.03 488.15 888.03 500L888.03 500Q888.03 511.85 889.73 519.63Q891.43 527.41 894.30 532.01Q897.17 536.62 900.91 538.47Q904.64 540.32 908.64 540.32L908.64 540.32Q912.72 540.32 916.50 538.47Q920.27 536.62 923.18 532.01Q926.08 527.41 927.82 519.63Q929.56 511.85 929.56 500ZM1036.39 500L1036.39 500Q1036.39 514.27 1033.33 524.80Q1030.27 535.33 1024.88 542.20Q1019.48 549.08 1012.12 552.43Q1004.76 555.79 996.22 555.79L996.22 555.79Q987.69 555.79 980.41 552.43Q973.12 549.08 967.76 542.20Q962.40 535.33 959.38 524.80Q956.36 514.27 956.36 500L956.36 500Q956.36 485.65 959.38 475.16Q962.40 464.67 967.76 457.80Q973.12 450.93 980.41 447.57Q987.69 444.21 996.22 444.21L996.22 444.21Q1004.76 444.21 1012.12 447.57Q1019.48 450.93 1024.88 457.80Q1030.27 464.67 1033.33 475.16Q1036.39 485.65 1036.39 500ZM1017.14 500L1017.14 500Q1017.14 488.15 1015.40 480.37Q1013.66 472.59 1010.76 467.99Q1007.85 463.38 1004.08 461.53Q1000.30 459.68 996.22 459.68L996.22 459.68Q992.22 459.68 988.49 461.53Q984.75 463.38 981.88 467.99Q979.01 472.59 977.31 480.37Q975.61 488.15 975.61 500L975.61 500Q975.61 511.85 977.31 519.63Q979.01 527.41 981.88 532.01Q984.75 536.62 988.49 538.47Q992.22 540.32 996.22 540.32L996.22 540.32Q1000.30 540.32 1004.08 538.47Q1007.85 536.62 1010.76 532.01Q1013.66 527.41 1015.40 519.63Q1017.14 511.85 1017.14 500ZM1123.97 500L1123.97 500Q1123.97 514.27 1120.91 524.80Q1117.85 535.33 1112.46 542.20Q1107.06 549.08 1099.70 552.43Q1092.34 555.79 1083.80 555.79L1083.80 555.79Q1075.27 555.79 1067.99 552.43Q1060.70 549.08 1055.34 542.20Q1049.98 535.33 1046.96 524.80Q1043.94 514.27 1043.94 500L1043.94 500Q1043.94 485.65 1046.96 475.16Q1049.98 464.67 1055.34 457.80Q1060.70 450.93 1067.99 447.57Q1075.27 444.21 1083.80 444.21L1083.80 444.21Q1092.34 444.21 1099.70 447.57Q1107.06 450.93 1112.46 457.80Q1117.85 464.67 1120.91 475.16Q1123.97 485.65 1123.97 500ZM1104.72 500L1104.72 500Q1104.72 488.15 1102.98 480.37Q1101.24 472.59 1098.34 467.99Q1095.43 463.38 1091.66 461.53Q1087.88 459.68 1083.80 459.68L1083.80 459.68Q1079.80 459.68 1076.07 461.53Q1072.33 463.38 1069.46 467.99Q1066.59 472.59 1064.89 480.37Q1063.19 488.15 1063.19 500L1063.19 500Q1063.19 511.85 1064.89 519.63Q1066.59 527.41 1069.46 532.01Q1072.33 536.62 1076.07 538.47Q1079.80 540.32 1083.80 540.32L1083.80 540.32Q1087.88 540.32 1091.66 538.47Q1095.43 536.62 1098.34 532.01Q1101.24 527.41 1102.98 519.63Q1104.72 511.85 1104.72 500Z" fill="#999999"/></svg>