<?xml version="1.0" encoding="UTF-8"?><svg id="Layer_2" xmlns="http://www.w3.org/2000/svg" viewBox="0 0 233 250.61"><defs><style>.cls-1{fill:#fd5d5d;}.cls-2{fill:#ff8080;}.cls-3{fill:#af8c00;}</style></defs><g id="Layer_1-2"><path class="cls-1" d="m34.76,160.27s12.13-4.55,13.64-6.06,12.89-8.34,31.84,3.03c18.95,11.37,27.29,51.54,15.92,67.46,0,0-6.82,10.61-11.37,12.89,0,0-12.89,11.37-20.47,12.13-7.54.75-18.95,3.79-40.17-8.34,0,0-28.8-18.95-23.5-47.75,0,0,1.52-18.19,21.22-26.53,0,0,5.31-5.31,12.89-6.82Z"/><path class="cls-1" d="m141.64,118.58s18.19-21.22,32.59-22.74c14.4-1.52,26.53,0,36.38,8.34,9.85,8.34,25.01,25.01,21.98,43.96,0,0-.76,21.98-29.56,34.11,0,0-24.26,10.61-47.75-3.79,0,0-26.53-15.16-22.74-39.42,0,0,3.79-15.16,9.1-20.47Z"/><path class="cls-3" d="m64.33,16.25S71.15-2.7,80.24.33c0,0,3.03,0,2.27,7.58,0,0-3.03,15.16,0,24.26s17.43,28.05,17.43,28.05l51.54,51.54s3.79,3.79,3.79,3.03l-5.31,8.34s1.52-.76-5.31-9.1c-6.82-8.34-47.75-50.03-47.75-50.03,0,0-18.19-22.74-20.47-30.32,0,0-4.55-7.58-4.55-10.61,0,0-9.85,8.34-12.13,13.64,0,0-18.19,24.26-21.98,45.48,0,0-6.82,27.29-4.55,46.24l3.03,31.08-6.06,2.27s-5.31-60.64,3.03-81.87c0,0,6.82-25.77,19.71-43.96,0,0,10.61-16.68,11.37-19.71Z"/><path class="cls-2" d="m183.68,111.22c9.42.21,18.1,4.75,23.48,12.52,2.76,3.98,9.33.2,6.55-3.83-6.95-10.03-17.8-16-30.03-16.27-4.88-.11-4.88,7.47,0,7.58h0Z"/><path class="cls-2" d="m54.59,170.69c7.26-1.79,14.47.36,19.66,5.7,3.41,3.5,8.76-1.86,5.36-5.36-7.07-7.27-17.21-10.08-27.04-7.65-4.73,1.17-2.73,8.48,2.02,7.31h0Z"/></g></svg>